# File created by Blade
# Date/Time:  Tue Apr 07 20:41:02 2015
# Frame Rate: 120.000 fps
#------------------------------------------------------
:FULLY-SPECIFIED
:DEGREES
399
root 3.208769 32.861238 -2.034408 7.281421 -7.760427 -10.497470
Spine 9.401045 7.192807 4.677568
Head -1.992604 -4.341498 10.413369
LeftShoulder -15.708248 43.275331 15.079511
LeftArm 53.724248 -3.083358 -81.988106
LeftForeArm 4.678084 -0.000000 20.671582
LeftHand 6.185492 0.000000 10.992444
LeftHandThumb1 -26.253704 0.000000 33.147579
RightShoulder 5.024198 5.477188 -12.284875
RightArm 25.723513 -13.630275 96.361185
RightForeArm 21.183788 0.000000 11.095795
RightHand 5.835878 -0.000000 -2.230752
RightHandThumb1 -24.326973 -0.000000 -32.862282
LeftUpLeg -13.191836 -1.784996 4.589474
LeftLeg 11.473019 -0.000000 -0.000000
LeftFoot -10.034433 24.815519 -3.279677
LeftToeBase -5.584847 -0.000000 0.000000
RightUpLeg -63.339743 -19.881556 9.559258
RightLeg 83.492312 -0.000000 -0.000000
RightFoot 28.779243 2.854635 8.731430
RightToeBase 13.900145 -0.000000 -0.000000
400
root 3.209202 32.856856 -2.035469 7.426961 -7.903116 -10.455340
Spine 9.277137 7.299892 4.606670
Head -1.998603 -4.218458 10.400996
LeftShoulder -15.809148 43.395339 15.030095
LeftArm 53.550624 -3.440725 -81.933805
LeftForeArm 4.418473 -0.000000 20.539862
LeftHand 6.162248 -0.000000 11.112754
LeftHandThumb1 -26.253704 0.000000 33.147579
RightShoulder 5.018539 5.542571 -12.330745
RightArm 25.814497 -13.788292 96.454063
RightForeArm 20.625884 0.000000 11.200547
RightHand 6.017147 -0.000000 -2.717234
RightHandThumb1 -24.326973 -0.000000 -32.862282
LeftUpLeg -13.366717 -1.823904 4.542667
LeftLeg 11.557280 -0.000000 -0.000000
LeftFoot -10.021504 25.054625 -3.195292
LeftToeBase -5.552112 -0.000000 0.000000
RightUpLeg -62.722442 -19.435233 9.573225
RightLeg 82.656917 -0.000000 -0.000000
RightFoot 28.890083 2.285981 8.934426
RightToeBase 13.923103 -0.000000 -0.000000
401
root 3.213531 32.853781 -2.037210 7.583374 -7.997860 -10.433816
Spine 9.149059 7.344873 4.593085
Head -2.010933 -4.089479 10.335413
LeftShoulder -15.919718 43.501561 14.931848
LeftArm 53.359591 -3.857415 -81.966368
LeftForeArm 4.374864 -0.000000 20.417758
LeftHand 6.102651 0.000000 11.104412
LeftHandThumb1 -26.253704 0.000000 33.147579
RightShoulder 5.028601 5.614458 -12.391668
RightArm 25.893241 -13.967322 96.530848
RightForeArm 20.662205 0.000000 11.313411
RightHand 5.993509 -0.000000 -2.793553
RightHandThumb1 -24.326973 -0.000000 -32.862282
LeftUpLeg -13.563252 -1.925115 4.527035
LeftLeg 11.658884 -0.000000 -0.000000
LeftFoot -9.921158 25.239261 -3.023615
LeftToeBase -5.792093 -0.000000 0.000000
RightUpLeg -62.063978 -19.044974 9.611350
RightLeg 81.758866 -0.000000 -0.000000
RightFoot 28.854403 1.772870 9.176323
RightToeBase 13.844342 -0.000000 -0.000000
402
root 3.218435 32.850487 -2.034612 7.715089 -8.062827 -10.382080
Spine 9.033018 7.371340 4.554972
Head -2.032517 -4.006833 10.271306
LeftShoulder -15.972897 43.599971 14.880979
LeftArm 53.139589 -4.277688 -81.987211
LeftForeArm 4.187255 -0.000000 20.285773
LeftHand 6.213145 -0.000000 11.170102
LeftHandThumb1 -26.253704 0.000000 33.147579
RightShoulder 5.032938 5.646218 -12.438767
RightArm 25.999621 -14.177953 96.563384
RightForeArm 20.782595 -0.000000 11.430739
RightHand 6.053388 -0.000000 -2.709254
RightHandThumb1 -24.326973 -0.000000 -32.862282
LeftUpLeg -13.723267 -2.076374 4.487766
LeftLeg 11.726531 -0.000000 -0.000000
LeftFoot -9.862150 25.434081 -2.909891
LeftToeBase -5.942944 -0.000000 0.000000
RightUpLeg -61.396838 -18.658496 9.600827
RightLeg 80.883764 -0.000000 -0.000000
RightFoot 28.771964 1.314051 9.506501
RightToeBase 13.709753 -0.000000 -0.000000
403
root 3.230264 32.847831 -2.034514 7.819391 -8.145191 -10.291965
Spine 8.972471 7.388024 4.502600
Head -2.104717 -3.887237 10.158059
LeftShoulder -16.044291 43.678614 14.801487
LeftArm 52.909098 -4.713592 -82.047287
LeftForeArm 4.111130 -0.000000 20.193245
LeftHand 6.100127 -0.000000 11.161592
LeftHandThumb1 -26.253704 0.000000 33.147579
RightShoulder 5.081888 5.753384 -12.512799
RightArm 26.004475 -14.253080 96.690754
RightForeArm 20.732338 -0.000000 11.601543
RightHand 5.905114 -0.000000 -2.681541
RightHandThumb1 -24.326973 -0.000000 -32.862282
LeftUpLeg -13.878481 -2.156498 4.397384
LeftLeg 11.820843 -0.000000 -0.000000
LeftFoot -9.890071 25.506509 -2.973587
LeftToeBase -5.877702 -0.000000 0.000000
RightUpLeg -60.709269 -18.373468 9.576123
RightLeg 79.940913 -0.000000 -0.000000
RightFoot 28.702417 1.008075 9.671131
RightToeBase 13.627426 -0.000000 -0.000000
